# xmcd
#
# Track frame offsets: 
#        150
#        19876
#        36150
#        57443
#        75807
#        98100
#        115537
#        141001
#
# Disc length: 2125 seconds
#
# Revision: 0
# Processed by: cddbd v1.5.2PL0 Copyright (c) Steve Scherf et al.
# Submitted via: ExactAudioCopy v1.0b3
#
DISCID=58084b08
DTITLE=Love Unlimited Orchestra - Music Maestro Please
DYEAR=1975
DGENRE=Disco
TTITLE0=Bring It On Up
TTITLE1=Makin' Believe That It's You
TTITLE2=I Wanna Stay
TTITLE3=Give Up Your Love Girl
TTITLE4=You're All I Want
TTITLE5=It's Only What I Feel
TTITLE6=Midnight Groove
TTITLE7=Forever In Love
EXTD=
EXTT0=
EXTT1=
EXTT2=
EXTT3=
EXTT4=
EXTT5=
EXTT6=
EXTT7=
PLAYORDER=
